<svg xmlns="http://www.w3.org/2000/svg" viewBox="0 0 100 100" fill="none" stroke="white" stroke-width="2.5" stroke-linecap="round" stroke-linejoin="round">
  <!-- Основной корпус БП -->
  <rect x="20" y="25" width="60" height="40" rx="2" />
  
  <!-- Вентилятор (круг с крестом внутри) -->
  <circle cx="38" cy="45" r="12" />
  <path d="M38 33v24M26 45h24" stroke-width="1.5" />
  
  <!-- Два разъема справа (D-образные) -->
  <path d="M62 35h8a2 2 0 0 1 2 2v6a2 2 0 0 1-2 2h-8z" stroke-width="2" />
  <path d="M62 50h8a2 2 0 0 1 2 2v6a2 2 0 0 1-2 2h-8z" stroke-width="2" />
  
  <!-- Кабель питания со штепселем -->
  <path d="M28 65v5c0 5 5 10 15 10h20" />
  <!-- Вилка (штепсель) -->
  <rect x="63" y="75" width="10" height="10" rx="1" />
  <path d="M73 78h4M73 82h4" stroke-width="2" />
</svg>