<svg xmlns="http://www.w3.org/2000/svg" viewBox="0 0 100 100" fill="none" stroke="white" stroke-width="2.5" stroke-linecap="round" stroke-linejoin="round">
  <!-- Задняя вертикальная планка (L-образная слева) -->
  <path d="M20 20v60M20 30h-5M20 40h-5M20 50h-5" />
  
  <!-- Основной корпус карты -->
  <rect x="25" y="30" width="55" height="40" rx="2" />
  
  <!-- Вентилятор (круг с лепестками) -->
  <circle cx="58" cy="50" r="12" />
  <!-- Внутренние линии вентилятора (лопасти) -->
  <path d="M58 43l0 3M58 54l0 3M51 50l3 0M62 50l3 0M53 45l2 2M61 55l2 2M53 55l2-2M61 45l2-2" stroke-width="1.5" />
  
  <!-- Три горизонтальные линии слева от вентилятора -->
  <line x1="33" y1="43" x2="45" y2="43" />
  <line x1="33" y1="50" x2="45" y2="50" />
  <line x1="33" y1="57" x2="45" y2="57" />
  
  <!-- Контакты PCI снизу -->
  <path d="M35 70v3M45 70v3M55 70v3" stroke-width="2" />
</svg>